Coordinates
version=1
nRows=21
nColumns=22
inDegrees=yes

Units are S.I. units (second, meters, Newtons, ...)
If the header above contains a line with 'inDegrees', this indicates whether rotational values are in degrees (yes) or radians (no).

endheader
time	pelvis_tilt	pelvis_list	pelvis_rotation	pelvis_tx	pelvis_ty	pelvis_tz	hip_flexion_r	hip_adduction_r	hip_rotation_r	knee_angle_r	ankle_angle_r	subtalar_angle_r	hip_flexion_l	hip_adduction_l	hip_rotation_l	knee_angle_l	ankle_angle_l	subtalar_angle_l	lumbar_extension	lumbar_bending	lumbar_rotation
      5.00000000	     -6.99618134	     -7.74124683	    257.20440847	     -0.66563945	      0.91685180	     -0.08121116	     16.64480955	      0.32613122	     -3.05083026	    -16.71330165	     -5.76191752	      7.97482845	    -17.81539621	     -0.82945640	      9.62092872	    -29.03427713	     27.25756202	    -12.10185036	    -12.62464375	      2.94515775	    -19.77079500
      5.01000000	     -7.24244402	     -7.81251203	    257.77377529	     -0.67068215	      0.91796862	     -0.07262973	     16.61020373	      0.66954259	     -3.25131638	    -18.12685039	     -5.61409513	      7.74530365	    -17.90161100	     -1.48466660	      9.86059983	    -30.01925804	     25.94334852	    -11.33358598	    -12.46061545	      3.25956100	    -19.73195960
      5.02000000	     -7.52095321	     -7.88699237	    258.28846460	     -0.67583669	      0.91932109	     -0.06392168	     16.43037623	      1.05909439	     -3.49533605	    -19.31461995	     -5.21561626	      7.58475573	    -17.95942545	     -2.17515510	      9.99376237	    -31.02983999	     24.40642505	    -10.50378062	    -12.28341258	      3.58624755	    -19.64772427
      5.03000000	     -7.82240875	     -7.95589650	    258.77033632	     -0.68104751	      0.92084335	     -0.05515078	     16.11122218	      1.48751388	     -3.79880270	    -20.25218666	     -4.63971092	      7.43508364	    -17.95039960	     -2.89594820	     10.03687674	    -32.09837181	     22.64383212	     -9.64588460	    -12.09046453	      3.92153586	    -19.54075492
      5.04000000	     -8.11807940	     -8.02860844	    259.24739088	     -0.68623473	      0.92246604	     -0.04641338	     15.67222489	      1.91445817	     -4.21093930	    -20.96912887	     -3.93487098	      7.25658599	    -17.84509056	     -3.61605926	     10.02187308	    -33.26276209	     20.67357962	     -8.80890474	    -11.90352633	      4.23591035	    -19.43834613
      5.05000000	     -8.39419373	     -8.10139051	    259.73819633	     -0.69134254	      0.92411748	     -0.03779618	     15.13822630	      2.32469109	     -4.73461341	    -21.48553242	     -3.16147555	      7.01908670	    -17.60847640	     -4.32012060	      9.97865006	    -34.55745547	     18.50951467	     -8.02458943	    -11.72999273	      4.51953892	    -19.35861301
      5.06000000	     -8.66338926	     -8.13758703	    260.23838586	     -0.69637272	      0.92571593	     -0.02933246	     14.54488385	      2.75197022	     -5.30238262	    -21.78397248	     -2.38287255	      6.67011554	    -17.20242469	     -5.02003763	      9.93297694	    -35.98656490	     16.15790777	     -7.25984485	    -11.53555532	      4.79621098	    -19.24799907
      5.07000000	     -8.89147243	     -8.16535346	    260.77912676	     -0.70122250	      0.92722392	     -0.02111814	     13.91956969	      3.13465880	     -5.98182546	    -21.95070857	     -1.60802876	      6.25565084	    -16.62100503	     -5.66925393	      9.94217213	    -37.58111321	     13.67414267	     -6.57556211	    -11.36471715	      5.02902115	    -19.15661368
      5.08000000	     -9.08661284	     -8.17227088	    261.35560634	     -0.70587386	      0.92859087	     -0.01319077	     13.29758384	      3.48582484	     -6.74113625	    -22.02079734	     -0.86550514	      5.78649443	    -15.85138355	     -6.26682173	     10.02583111	    -39.34617480	     11.11647483	     -5.94244867	    -11.21277597	      5.23363497	    -19.06606511
      5.09000000	     -9.26302340	     -8.14928370	    261.96031213	     -0.71031783	      0.92979230	     -0.00555981	     12.69447352	      3.83010331	     -7.51189090	    -22.00283738	     -0.16563088	      5.26375095	    -14.89700424	     -6.81428453	     10.20864512	    -41.27007007	      8.55365644	     -5.31223129	    -11.07324077	      5.43130115	    -18.95498510
      5.10000000	     -9.41937827	     -8.10809185	    262.58636733	     -0.71453269	      0.93081021	      0.00173579	     12.13650766	      4.15466869	     -8.31189908	    -21.96475223	      0.48247919	      4.72679659	    -13.76738805	     -7.30560761	     10.46300796	    -43.35700921	      6.10621941	     -4.66458033	    -10.96713544	      5.62098793	    -18.83412353
      5.11000000	     -9.57345928	     -8.04843438	    263.21428040	     -0.71853744	      0.93166429	      0.00872073	     11.61766291	      4.49227146	     -9.04725012	    -21.89898905	      1.08391787	      4.18039297	    -12.49550405	     -7.74235820	     10.80057053	    -45.56496263	      3.88238661	     -3.97690476	    -10.89099083	      5.82448321	    -18.67922714
      5.12000000	     -9.73225867	     -7.97778633	    263.83121609	     -0.72233787	      0.93236425	      0.01540858	     11.15183317	      4.83819087	     -9.75583579	    -21.85103546	      1.63073761	      3.67506353	    -11.11059131	     -8.12982078	     11.19002882	    -47.86091567	      2.02573960	     -3.29599499	    -10.85119244	      6.04776302	    -18.47080100
      5.13000000	     -9.90096400	     -7.90856459	    264.41413302	     -0.72598037	      0.93296184	      0.02182113	     10.71519168	      5.20944060	    -10.36069470	    -21.80352717	      2.12863090	      3.19275393	     -9.65955164	     -8.47208887	     11.59571434	    -50.18696212	      0.63434939	     -2.64262795	    -10.85520100	      6.29116142	    -18.20419418
      5.14000000	    -10.08291713	     -7.85127627	    264.94946385	     -0.72949429	      0.93349972	      0.02798663	     10.29245551	      5.60739794	    -10.86021726	    -21.75478211	      2.57015129	      2.74840461	     -8.18179959	     -8.78281087	     11.97256086	    -52.48755594	     -0.20086140	     -2.11064269	    -10.90907020	      6.55590543	    -17.87278855
      5.15000000	    -10.27579955	     -7.81273024	    265.42683890	     -0.73292790	      0.93403286	      0.03393410	      9.86054671	      6.03832335	    -11.22009499	    -21.67945622	      2.96755904	      2.31140833	     -6.71313542	     -9.07274440	     12.28587881	    -54.69685531	     -0.43628698	     -1.78369016	    -11.01000882	      6.83123674	    -17.48127535
      5.16000000	    -10.49764547	     -7.80305514	    265.83791613	     -0.73631894	      0.93460965	      0.03969552	      9.39539305	      6.51632609	    -11.48465414	    -21.56048120	      3.25880892	      1.97995978	     -5.28779375	     -9.38556718	     12.48872976	    -56.76357818	     -0.02254581	     -1.78860732	    -11.16420320	      7.13151925	    -17.00817430
      5.17000000	    -10.70157319	     -7.78731900	    266.16956620	     -0.73970614	      0.93518141	      0.04524672	      8.96171611	      6.99464163	    -11.61441616	    -21.45008015	      3.59326738	      1.51828679	     -3.86749483	     -9.68874470	     12.53702150	    -58.65739490	      0.93477834	     -2.29531496	    -11.32628272	      7.40377655	    -16.47878556
      5.18000000	    -10.92622002	     -7.79844334	    266.42949196	     -0.74308280	      0.93585808	      0.05064285	      8.48236966	      7.50930554	    -11.66352005	    -21.27720659	      3.79591992	      1.15924477	     -2.51918885	    -10.03656509	     12.44110038	    -60.32284205	      2.40716004	     -3.29377762	    -11.52678060	      7.68542233	    -15.86751911
      5.19000000	    -11.12684077	     -7.83341832	    266.63141265	     -0.74642505	      0.93665778	      0.05589800	      7.95200113	      8.01567890	    -11.59832465	    -21.03025759	      3.98308716	      0.82597256	     -1.25327926	    -10.37241479	     12.23592787	    -61.72221109	      4.27885082	     -4.84736859	    -11.75090359	      7.92476004	    -15.21613049
      5.20000000	    -11.30344276	     -7.88667708	    266.77732529	     -0.74970235	      0.93757103	      0.06100509	      7.38988812	      8.50008117	    -11.46799748	    -20.73867263	      4.12415293	      0.53023582	     -0.07054034	    -10.69718781	     11.92363533	    -62.84366042	      6.39096160	     -6.85864172	    -11.99220867	      8.12717155	    -14.52112721
